<?xml version="1.0" standalone="no"?>
<!DOCTYPE svg PUBLIC "-//W3C//DTD SVG 20010904//EN"
 "http://www.w3.org/TR/2001/REC-SVG-20010904/DTD/svg10.dtd">
<svg version="1.0" xmlns="http://www.w3.org/2000/svg"
 width="256.000000pt" height="256.000000pt" viewBox="0 0 256.000000 256.000000"
 preserveAspectRatio="xMidYMid meet">

<g transform="translate(0.000000,256.000000) scale(0.100000,-0.100000)"
fill="#000000" stroke="none">
<path d="M401 2384 c-70 -19 -111 -44 -160 -100 -80 -91 -76 -42 -76 -1004 0
-987 -6 -920 94 -1021 101 -100 34 -94 1021 -94 987 0 920 -6 1021 94 100 101
94 34 94 1021 0 987 6 921 -94 1021 -101 100 -30 94 -1001 96 -717 2 -853 0
-899 -13z m712 -564 c25 -20 127 -195 127 -219 0 -20 -134 -251 -141 -244 -4
5 -35 61 -70 126 l-63 117 -103 0 c-57 0 -103 -4 -103 -8 0 -5 43 -103 96
-218 53 -115 109 -238 125 -273 l29 -65 201 375 c111 206 214 386 230 402 l29
27 289 0 289 0 31 -26 c40 -33 54 -84 37 -133 -7 -20 -111 -250 -231 -511
-151 -328 -228 -484 -248 -502 -37 -36 -110 -39 -150 -8 -26 21 -174 287 -169
303 5 17 134 247 138 247 2 0 18 -28 35 -62 64 -127 47 -139 171 129 61 131
118 257 129 281 l18 42 -107 0 -107 0 -240 -448 c-132 -246 -254 -462 -271
-479 -27 -27 -40 -33 -75 -33 -90 0 -82 -13 -337 543 -144 314 -232 518 -232
537 0 17 7 44 15 60 29 57 43 59 351 60 268 0 283 -1 307 -20z"/>
</g>
</svg>
